<svg xmlns="http://www.w3.org/2000/svg" width="800" height="400" viewBox="0 0 800 400"><rect width="100%" height="100%" fill="#DDDDDD"/><path fill="#999999" d="m177.705 175.01 1.01 4.82q1.85-1.84 3.9-3.42t4.35-2.68q2.29-1.1 4.9-1.72 2.62-.63 5.72-.63 4.99 0 8.86 1.7 3.87 1.69 6.46 4.76 2.59 3.06 3.92 7.32 1.34 4.25 1.34 9.37v38.85h-14.69v-38.85q0-5.6-2.56-8.66-2.56-3.07-7.8-3.07-3.8 0-7.14 1.73-3.33 1.73-6.3 4.7v44.15h-14.7v-61.05h8.98q2.86 0 3.75 2.68m81.4-3.63q6.78 0 12.35 2.2 5.56 2.2 9.52 6.25 3.95 4.05 6.09 9.88 2.15 5.83 2.15 13.03 0 7.26-2.15 13.09-2.14 5.83-6.09 9.93-3.96 4.11-9.52 6.31-5.57 2.2-12.35 2.2-6.84 0-12.44-2.2-5.59-2.2-9.55-6.31-3.95-4.1-6.12-9.93-2.18-5.83-2.18-13.09 0-7.2 2.18-13.03 2.17-5.83 6.12-9.88 3.96-4.05 9.55-6.25 5.6-2.2 12.44-2.2m0 51.59q7.62 0 11.27-5.12 3.66-5.12 3.66-14.99 0-9.88-3.66-15.06-3.65-5.17-11.27-5.17-7.74 0-11.45 5.2-3.72 5.21-3.72 15.03 0 9.81 3.72 14.96 3.71 5.15 11.45 5.15m70.74-50.64h14.76v61.05h-14.76zm16.78-17.79q0 1.91-.77 3.57-.77 1.67-2.05 2.92t-3.01 1.99q-1.72.74-3.69.74-1.9 0-3.6-.74-1.69-.74-2.94-1.99t-1.99-2.92q-.75-1.66-.75-3.57 0-1.96.75-3.69.74-1.72 1.99-2.97t2.94-1.99q1.7-.75 3.6-.75 1.97 0 3.69.75 1.73.74 3.01 1.99t2.05 2.97q.77 1.73.77 3.69m27.67 78.84h-14.7v-61.05h8.99q2.86 0 3.75 2.68l.95 4.52q1.61-1.78 3.36-3.27 1.76-1.49 3.75-2.56t4.28-1.69q2.29-.63 5.03-.63 5.77 0 9.49 3.12 3.72 3.13 5.57 8.3 1.42-3.03 3.57-5.2 2.14-2.17 4.7-3.54 2.55-1.37 5.44-2.02 2.89-.66 5.8-.66 5.06 0 8.99 1.55 3.92 1.54 6.6 4.52 2.68 2.97 4.08 7.26 1.39 4.28 1.39 9.82v38.85h-14.69v-38.85q0-5.83-2.56-8.78t-7.5-2.95q-2.26 0-4.19.78-1.94.77-3.39 2.23-1.46 1.46-2.29 3.66-.84 2.2-.84 5.06v38.85h-14.75v-38.85q0-6.13-2.47-8.93t-7.23-2.8q-3.22 0-5.98 1.58-2.77 1.58-5.15 4.32zm117.22-15.77v-10.29q-6.37.3-10.71 1.1-4.35.8-6.97 2.05-2.61 1.25-3.74 2.92-1.13 1.66-1.13 3.63 0 3.86 2.29 5.53t5.98 1.67q4.52 0 7.82-1.64t6.46-4.97m-31.06-32.07-2.62-4.7q10.53-9.64 25.35-9.64 5.35 0 9.58 1.76 4.22 1.75 7.14 4.88 2.91 3.12 4.43 7.46 1.52 4.35 1.52 9.52v38.56h-6.67q-2.08 0-3.21-.62-1.13-.63-1.79-2.53l-1.31-4.41q-2.32 2.09-4.52 3.66-2.2 1.58-4.58 2.65t-5.09 1.64q-2.7.56-5.98.56-3.86 0-7.14-1.04-3.27-1.04-5.65-3.12-2.38-2.09-3.69-5.18t-1.31-7.2q0-2.32.78-4.61.77-2.29 2.53-4.37 1.75-2.09 4.55-3.93 2.79-1.85 6.87-3.21 4.08-1.37 9.49-2.23 5.41-.87 12.38-1.05v-3.57q0-6.12-2.62-9.07t-7.56-2.95q-3.57 0-5.92.84-2.35.83-4.13 1.87-1.79 1.04-3.25 1.88-1.45.83-3.24.83-1.55 0-2.62-.8-1.07-.81-1.72-1.88m81.51 15.83q2.74 0 4.76-.74 2.03-.75 3.36-2.06 1.34-1.31 2.03-3.15.68-1.85.68-4.05 0-4.52-2.71-7.17-2.7-2.64-8.12-2.64-5.41 0-8.12 2.64-2.71 2.65-2.71 7.17 0 2.14.69 3.99.68 1.84 2.02 3.18t3.39 2.09q2.05.74 4.73.74m16.6 34.75q0-1.79-1.07-2.92t-2.91-1.75q-1.85-.63-4.32-.93-2.47-.29-5.23-.44-2.77-.15-5.72-.27-2.94-.12-5.74-.48-2.44 1.37-3.95 3.22-1.52 1.84-1.52 4.28 0 1.61.8 3.01.81 1.39 2.56 2.41 1.76 1.01 4.55 1.57 2.8.57 6.84.57 4.11 0 7.09-.63 2.97-.62 4.9-1.72 1.94-1.1 2.83-2.62t.89-3.3m-2.91-61.7h17.55v5.47q0 2.62-3.15 3.21l-5.48 1.01q1.25 3.16 1.25 6.91 0 4.52-1.81 8.18-1.82 3.66-5.03 6.21-3.21 2.56-7.59 3.96-4.37 1.4-9.43 1.4-1.78 0-3.45-.18-1.66-.18-3.27-.47-2.86 1.72-2.86 3.86 0 1.85 1.7 2.71 1.69.86 4.49 1.22t6.37.45 7.32.38q3.74.3 7.31 1.04 3.57.75 6.37 2.35 2.8 1.61 4.49 4.38 1.7 2.76 1.7 7.11 0 4.04-1.99 7.85-2 3.81-5.78 6.79-3.77 2.97-9.28 4.78-5.5 1.82-12.52 1.82-6.9 0-12.02-1.34t-8.51-3.57-5.06-5.15q-1.66-2.91-1.66-6.06 0-4.29 2.58-7.17 2.59-2.89 7.11-4.62-2.43-1.25-3.86-3.33t-1.43-5.47q0-1.37.51-2.83.5-1.46 1.48-2.88.98-1.43 2.47-2.71t3.51-2.29q-4.64-2.5-7.29-6.67-2.64-4.16-2.64-9.75 0-4.53 1.81-8.19 1.82-3.65 5.06-6.24t7.67-3.96q4.44-1.37 9.67-1.37 3.93 0 7.38.81 3.45.8 6.31 2.35m38.43 21.42h27.73q0-2.86-.8-5.39-.81-2.53-2.41-4.43-1.61-1.91-4.08-3.01t-5.74-1.1q-6.37 0-10.02 3.63-3.66 3.63-4.68 10.3m37.49 8.86h-37.78q.35 4.7 1.66 8.12t3.45 5.66q2.15 2.23 5.09 3.33 2.95 1.1 6.52 1.1t6.15-.84q2.59-.83 4.53-1.84 1.93-1.01 3.39-1.84 1.46-.84 2.82-.84 1.85 0 2.74 1.37l4.23 5.36q-2.44 2.85-5.48 4.79-3.03 1.93-6.34 3.09-3.3 1.16-6.72 1.64-3.42.47-6.63.47-6.37 0-11.84-2.11-5.48-2.11-9.52-6.25-4.05-4.13-6.37-10.23t-2.32-14.13q0-6.25 2.02-11.75 2.03-5.51 5.8-9.58 3.78-4.08 9.23-6.46 5.44-2.38 12.28-2.38 5.77 0 10.65 1.85 4.88 1.84 8.39 5.38t5.51 8.69q1.99 5.14 1.99 11.75 0 3.33-.71 4.49-.72 1.16-2.74 1.16"/></svg>